<svg xmlns="http://www.w3.org/2000/svg" xmlns:xlink="http://www.w3.org/1999/xlink" version="1.1" id="Layer_1" x="0px" y="0px" viewBox="0 0 1920 1371" enable-background="new 0 0 1920 1371" xml:space="preserve">
<path xmlns="http://www.w3.org/2000/svg" fill="#080808" d="M710.7828,381.8338c20.25-0.46,40.51-0.23,60.77-0.04c22.66-0.03,45.32,0.04,67.98,0.02  c3.24-0.42,5.28,2.51,7.52,4.32c9.54,8.54,17.61,19.66,19.4,32.62c1.87,12.99-3.14,25.87-10.24,36.54  c-5.2,7.93-11.72,14.87-18.5,21.45c-11.46,12.02-22.14,26.69-23,43.87c-0.69,15.37,8.39,29.24,19.44,39.13  c-0.48,1.22-0.94,2.45-1.4,3.68c-39.75-0.78-79.5-1.58-119.26-2.35c-1.82-0.15-3.9,0.3-5.4-0.98  c-10.55-7.73-20.37-17.62-24.48-30.34c-3.31-9.85-2.2-20.74,1.6801-30.25c3.8799-9.74,10.03-18.37,16.81-26.29  c5.85-6.8101,12.71-12.8,17.61-20.4c6.18-9.05,9.75-20.15,8.43-31.16c-1.62-13.91-9.57-26.13-18.66-36.39  C709.9028,384.1138,710.3328,382.9738,710.7828,381.8338 M715.5228,385.8838c9.83,12.01,17.85,26.84,17,42.81  c-0.76,15.43-9.7,29.02-20.31,39.67c-8.67,8.94-16.78,18.72-22,30.12c-4.16,9.1-5.92,19.68-2.85,29.39  c3.7,12.24,13.27,21.54,23.26,28.98c38.96,0.79,77.92,1.57,116.88,2.31c-9.18-9.57-16.64-21.86-16.87-35.47  c-0.69-15.42,7.14-29.69,16.57-41.3401c6.72-8.59,15.42-15.4,21.88-24.22c7.96-10.37,14.44-23.01,13.46-36.45  c-0.84-12.76-8.69-23.8-17.9-32.14c-1.9-1.44-3.48-4.08-6.17-3.65C797.4827,385.9238,756.5027,385.8338,715.5228,385.8838z"/>
</svg>